<?xml version="1.0" encoding="UTF-8"?>
<!DOCTYPE svg PUBLIC "-//W3C//DTD SVG 1.1//EN" "http://www.w3.org/Graphics/SVG/1.1/DTD/svg11.dtd">
<svg xmlns="http://www.w3.org/2000/svg" version="1.1" width="920px" height="702px" style="shape-rendering:geometricPrecision; text-rendering:geometricPrecision; image-rendering:optimizeQuality; fill-rule:evenodd; clip-rule:evenodd" xmlns:xlink="http://www.w3.org/1999/xlink">
<g><path style="opacity:0.367" fill="#f5f3ed" d="M 647.5,134.5 C 497.666,134.167 347.999,134.5 198.5,135.5C 198.372,137.655 198.872,139.655 200,141.5C 206.433,148.759 212.266,156.426 217.5,164.5C 217.5,164.833 217.5,165.167 217.5,165.5C 211.213,157.374 204.713,149.374 198,141.5C 197.255,139.797 196.421,138.13 195.5,136.5C 195.818,135.353 196.484,134.519 197.5,134C 347.667,133.167 497.667,133.334 647.5,134.5 Z"/></g>
<g><path style="opacity:0.998" fill="#ffa503" d="M 198.5,135.5 C 348.5,135.333 498.5,135.5 648.5,136C 653.438,144.391 659.438,151.891 666.5,158.5C 666.833,159.167 667.167,159.833 667.5,160.5C 667.5,161.833 667.5,163.167 667.5,164.5C 645.66,164.169 623.994,164.503 602.5,165.5C 602.5,260.167 602.5,354.833 602.5,449.5C 600.167,449.5 597.833,449.5 595.5,449.5C 593.2,447.016 590.533,445.016 587.5,443.5C 586.738,441.738 585.404,440.738 583.5,440.5C 579.407,437.276 575.074,434.276 570.5,431.5C 569.528,401.17 569.528,370.836 570.5,340.5C 570.5,329.167 570.5,317.833 570.5,306.5C 535.833,306.5 501.167,306.5 466.5,306.5C 465.504,321.658 465.17,336.991 465.5,352.5C 459.5,352.5 453.5,352.5 447.5,352.5C 441.463,346.465 435.796,340.131 430.5,333.5C 427.069,326.963 423.402,320.63 419.5,314.5C 419.475,311.821 418.142,310.488 415.5,310.5C 413.833,310.5 412.167,310.5 410.5,310.5C 397.163,311.778 383.83,311.778 370.5,310.5C 365.306,310.259 360.306,309.593 355.5,308.5C 348.03,306.128 340.363,304.128 332.5,302.5C 329.421,301.696 326.421,300.696 323.5,299.5C 321.406,297.006 319.406,297.006 317.5,299.5C 317.5,300.167 317.167,300.5 316.5,300.5C 313.833,302.5 311.5,304.833 309.5,307.5C 308.564,308.974 307.23,309.974 305.5,310.5C 304.5,310.833 303.833,311.5 303.5,312.5C 301.596,312.738 300.262,313.738 299.5,315.5C 297.469,317.522 295.135,319.189 292.5,320.5C 290.973,320.427 289.973,321.094 289.5,322.5C 287.973,322.427 286.973,323.094 286.5,324.5C 285.253,327.799 285.253,331.133 286.5,334.5C 287.079,337.331 288.412,339.664 290.5,341.5C 291.338,341.842 291.672,342.508 291.5,343.5C 292.026,345.23 293.026,346.564 294.5,347.5C 294.427,349.027 295.094,350.027 296.5,350.5C 300.857,358.55 306.191,365.884 312.5,372.5C 312.738,374.404 313.738,375.738 315.5,376.5C 317.794,380.127 320.46,383.461 323.5,386.5C 325.177,388.54 326.844,390.54 328.5,392.5C 331.123,396.791 334.456,400.457 338.5,403.5C 339.792,406.401 341.792,408.734 344.5,410.5C 348.461,416.129 353.127,421.129 358.5,425.5C 361.563,430.072 365.23,434.239 369.5,438C 362.663,442.253 355.663,446.253 348.5,450C 347.365,450.749 346.365,450.583 345.5,449.5C 326.494,424.504 307.16,399.837 287.5,375.5C 276.189,359.34 265.022,343.006 254,326.5C 247.514,315.696 241.681,304.529 236.5,293C 242.098,287.909 247.098,282.409 251.5,276.5C 251.833,276.5 252.167,276.5 252.5,276.5C 259.065,279.891 266.065,281.558 273.5,281.5C 278.42,282.968 283.086,282.301 287.5,279.5C 287.842,278.662 288.508,278.328 289.5,278.5C 293.812,276.218 295.812,272.552 295.5,267.5C 296.498,233.337 296.832,199.004 296.5,164.5C 270.167,164.5 243.833,164.5 217.5,164.5C 212.266,156.426 206.433,148.759 200,141.5C 198.872,139.655 198.372,137.655 198.5,135.5 Z M 418.5,278.5 C 405.371,279.914 392.204,280.914 379,281.5C 365.46,280.933 351.96,279.933 338.5,278.5C 335.793,276.976 332.793,275.976 329.5,275.5C 328.614,274.675 328.281,273.675 328.5,272.5C 328.5,271.5 328.5,270.5 328.5,269.5C 328.833,269.5 329.167,269.5 329.5,269.5C 330.498,235.337 330.832,201.004 330.5,166.5C 364.5,166.5 398.5,166.5 432.5,166.5C 432.187,201.184 432.52,235.851 433.5,270.5C 433.43,271.772 433.097,272.938 432.5,274C 428.277,275.472 423.943,276.472 419.5,277C 418.944,277.383 418.611,277.883 418.5,278.5 Z M 467.5,166.5 C 501.167,166.5 534.833,166.5 568.5,166.5C 568.667,202.502 568.5,238.502 568,274.5C 551.406,275.163 534.739,275.497 518,275.5C 501.261,275.497 484.594,275.163 468,274.5C 467.5,238.502 467.333,202.502 467.5,166.5 Z"/></g>
<g><path style="opacity:0.071" fill="#fbdeb8" d="M 198.5,135.5 C 347.999,134.5 497.666,134.167 647.5,134.5C 649.017,134.511 650.184,135.177 651,136.5C 655.94,144.067 661.107,151.4 666.5,158.5C 659.438,151.891 653.438,144.391 648.5,136C 498.5,135.5 348.5,135.333 198.5,135.5 Z"/></g>
<g><path style="opacity:0.948" fill="#fcbf68" d="M 434.5,212.5 C 433.504,197.009 433.17,181.342 433.5,165.5C 398.833,165.5 364.167,165.5 329.5,165.5C 329.5,200.167 329.5,234.833 329.5,269.5C 329.167,269.5 328.833,269.5 328.5,269.5C 328.5,234.5 328.5,199.5 328.5,164.5C 363.833,164.5 399.167,164.5 434.5,164.5C 434.5,180.5 434.5,196.5 434.5,212.5 Z"/></g>
<g><path style="opacity:0.898" fill="#fcb957" d="M 569.5,165.5 C 535.167,165.5 500.833,165.5 466.5,165.5C 466.5,202.5 466.5,239.5 466.5,276.5C 465.502,239.337 465.168,202.004 465.5,164.5C 500.337,164.168 535.004,164.502 569.5,165.5 Z"/></g>
<g><path style="opacity:0.972" fill="#fdba5a" d="M 667.5,160.5 C 668.451,161.919 668.784,163.585 668.5,165.5C 646.5,165.5 624.5,165.5 602.5,165.5C 623.994,164.503 645.66,164.169 667.5,164.5C 667.5,163.167 667.5,161.833 667.5,160.5 Z"/></g>
<g><path style="opacity:0.973" fill="#fcc67c" d="M 217.5,165.5 C 217.5,165.167 217.5,164.833 217.5,164.5C 243.833,164.5 270.167,164.5 296.5,164.5C 296.832,199.004 296.498,233.337 295.5,267.5C 295.5,233.5 295.5,199.5 295.5,165.5C 269.5,165.5 243.5,165.5 217.5,165.5 Z"/></g>
<g><path style="opacity:0.1" fill="#f8f1e1" d="M 434.5,212.5 C 434.5,233.5 434.5,254.5 434.5,275.5C 429.161,276.501 423.828,277.501 418.5,278.5C 418.611,277.883 418.944,277.383 419.5,277C 423.943,276.472 428.277,275.472 432.5,274C 433.097,272.938 433.43,271.772 433.5,270.5C 432.52,235.851 432.187,201.184 432.5,166.5C 398.5,166.5 364.5,166.5 330.5,166.5C 330.832,201.004 330.498,235.337 329.5,269.5C 329.5,234.833 329.5,200.167 329.5,165.5C 364.167,165.5 398.833,165.5 433.5,165.5C 433.17,181.342 433.504,197.009 434.5,212.5 Z"/></g>
<g><path style="opacity:0.184" fill="#f4f2ec" d="M 217.5,165.5 C 243.5,165.5 269.5,165.5 295.5,165.5C 295.5,199.5 295.5,233.5 295.5,267.5C 295.812,272.552 293.812,276.218 289.5,278.5C 291.463,276.601 292.963,274.267 294,271.5C 294.5,236.502 294.667,201.502 294.5,166.5C 271.311,166.192 248.144,166.525 225,167.5C 222.292,167.133 219.792,166.466 217.5,165.5 Z"/></g>
<g><path style="opacity:0.349" fill="#f5f4f2" d="M 569.5,165.5 C 569.5,202.5 569.5,239.5 569.5,276.5C 535.167,276.5 500.833,276.5 466.5,276.5C 466.5,239.5 466.5,202.5 466.5,165.5C 500.833,165.5 535.167,165.5 569.5,165.5 Z M 467.5,166.5 C 467.333,202.502 467.5,238.502 468,274.5C 484.594,275.163 501.261,275.497 518,275.5C 534.739,275.497 551.406,275.163 568,274.5C 568.5,238.502 568.667,202.502 568.5,166.5C 534.833,166.5 501.167,166.5 467.5,166.5 Z"/></g>
<g><path style="opacity:0.548" fill="#f4f3ed" d="M 666.5,158.5 C 667.496,158.414 668.329,158.748 669,159.5C 670.217,161.52 670.383,163.52 669.5,165.5C 647.51,166.5 625.51,166.833 603.5,166.5C 603.667,261.167 603.5,355.834 603,450.5C 601.938,451.097 600.772,451.43 599.5,451.5C 597.645,451.66 596.312,450.993 595.5,449.5C 597.833,449.5 600.167,449.5 602.5,449.5C 602.5,354.833 602.5,260.167 602.5,165.5C 624.5,165.5 646.5,165.5 668.5,165.5C 668.784,163.585 668.451,161.919 667.5,160.5C 667.167,159.833 666.833,159.167 666.5,158.5 Z"/></g>
<g><path style="opacity:0.667" fill="#fdebd1" d="M 328.5,272.5 C 328.281,273.675 328.614,274.675 329.5,275.5C 332.793,275.976 335.793,276.976 338.5,278.5C 335.041,278.469 331.708,277.802 328.5,276.5C 327.218,275.042 327.218,273.708 328.5,272.5 Z"/></g>
<g><path style="opacity:0.014" fill="#fbebd6" d="M 252.5,276.5 C 252.56,275.957 252.893,275.624 253.5,275.5C 260.273,278.607 267.273,280.607 274.5,281.5C 274.167,281.5 273.833,281.5 273.5,281.5C 266.065,281.558 259.065,279.891 252.5,276.5 Z"/></g>
<g><path style="opacity:0.271" fill="#fccd8b" d="M 287.5,279.5 C 283.086,282.301 278.42,282.968 273.5,281.5C 273.833,281.5 274.167,281.5 274.5,281.5C 278.913,281.313 283.246,280.646 287.5,279.5 Z"/></g>
<g><path style="opacity:0.012" fill="#f9f4ec" d="M 323.5,299.5 C 321.5,299.5 319.5,299.5 317.5,299.5C 319.406,297.006 321.406,297.006 323.5,299.5 Z"/></g>
<g><path style="opacity:0.447" fill="#faefdc" d="M 251.5,276.5 C 247.098,282.409 242.098,287.909 236.5,293C 241.681,304.529 247.514,315.696 254,326.5C 265.022,343.006 276.189,359.34 287.5,375.5C 267.531,351.632 250.364,325.632 236,297.5C 235.245,294.697 235.578,292.03 237,289.5C 241.355,284.646 246.188,280.313 251.5,276.5 Z"/></g>
<g><path style="opacity:0.004" fill="#fbf6ee" d="M 316.5,300.5 C 315.167,303.833 312.833,306.167 309.5,307.5C 311.5,304.833 313.833,302.5 316.5,300.5 Z"/></g>
<g><path style="opacity:0.082" fill="#f9eddc" d="M 332.5,302.5 C 340.363,304.128 348.03,306.128 355.5,308.5C 347.356,307.882 339.69,305.882 332.5,302.5 Z"/></g>
<g><path style="opacity:0.286" fill="#f7f5ee" d="M 466.5,306.5 C 501.167,306.5 535.833,306.5 570.5,306.5C 570.5,317.833 570.5,329.167 570.5,340.5C 570.167,340.5 569.833,340.5 569.5,340.5C 569.5,329.5 569.5,318.5 569.5,307.5C 535.5,307.5 501.5,307.5 467.5,307.5C 467.829,322.676 467.496,337.676 466.5,352.5C 466.5,337.167 466.5,321.833 466.5,306.5 Z"/></g>
<g><path style="opacity:0.004" fill="#ffeee5" d="M 305.5,310.5 C 305.5,311.833 304.833,312.5 303.5,312.5C 303.833,311.5 304.5,310.833 305.5,310.5 Z"/></g>
<g><path style="opacity:0.02" fill="#fff2e4" d="M 370.5,310.5 C 383.83,311.778 397.163,311.778 410.5,310.5C 410.389,311.117 410.056,311.617 409.5,312C 397.167,312.667 384.833,312.667 372.5,312C 371.584,311.722 370.918,311.222 370.5,310.5 Z"/></g>
<g><path style="opacity:0.043" fill="#fbf7eb" d="M 415.5,310.5 C 418.142,310.488 419.475,311.821 419.5,314.5C 418.167,313.167 416.833,311.833 415.5,310.5 Z"/></g>
<g><path style="opacity:0.004" fill="#fef3e3" d="M 303.5,312.5 C 302.738,314.262 301.404,315.262 299.5,315.5C 300.262,313.738 301.596,312.738 303.5,312.5 Z"/></g>
<g><path style="opacity:0.004" fill="#fff2e8" d="M 292.5,320.5 C 292.027,321.906 291.027,322.573 289.5,322.5C 289.973,321.094 290.973,320.427 292.5,320.5 Z"/></g>
<g><path style="opacity:0.004" fill="#fcf4e6" d="M 289.5,322.5 C 289.027,323.906 288.027,324.573 286.5,324.5C 286.973,323.094 287.973,322.427 289.5,322.5 Z"/></g>
<g><path style="opacity:0.106" fill="#fbecd5" d="M 419.5,314.5 C 423.402,320.63 427.069,326.963 430.5,333.5C 428.926,333.063 427.759,332.063 427,330.5C 423.685,325.537 421.185,320.204 419.5,314.5 Z"/></g>
<g><path style="opacity:0.094" fill="#fbecd5" d="M 286.5,334.5 C 288.588,336.336 289.921,338.669 290.5,341.5C 288.412,339.664 287.079,337.331 286.5,334.5 Z"/></g>
<g><path style="opacity:0.016" fill="#fef2e5" d="M 291.5,343.5 C 293.446,344.035 294.446,345.368 294.5,347.5C 293.026,346.564 292.026,345.23 291.5,343.5 Z"/></g>
<g><path style="opacity:0.114" fill="#f8edda" d="M 294.5,347.5 C 295.906,347.973 296.573,348.973 296.5,350.5C 295.094,350.027 294.427,349.027 294.5,347.5 Z"/></g>
<g><path style="opacity:0.275" fill="#faf4e8" d="M 430.5,333.5 C 435.796,340.131 441.463,346.465 447.5,352.5C 447.5,352.833 447.5,353.167 447.5,353.5C 439.966,348.44 434.3,341.774 430.5,333.5 Z"/></g>
<g><path style="opacity:0.822" fill="#fdcd8d" d="M 466.5,306.5 C 466.5,321.833 466.5,337.167 466.5,352.5C 463.742,353.818 460.576,354.485 457,354.5C 453.648,354.498 450.482,354.165 447.5,353.5C 447.5,353.167 447.5,352.833 447.5,352.5C 453.5,352.5 459.5,352.5 465.5,352.5C 465.17,336.991 465.504,321.658 466.5,306.5 Z"/></g>
<g><path style="opacity:0.078" fill="#faf0e0" d="M 296.5,350.5 C 302.32,357.471 307.653,364.804 312.5,372.5C 306.191,365.884 300.857,358.55 296.5,350.5 Z"/></g>
<g><path style="opacity:0.267" fill="#fae4c3" d="M 312.5,372.5 C 314.262,373.262 315.262,374.596 315.5,376.5C 313.738,375.738 312.738,374.404 312.5,372.5 Z"/></g>
<g><path style="opacity:0.118" fill="#fbebd5" d="M 315.5,376.5 C 319.3,378.963 321.967,382.296 323.5,386.5C 320.46,383.461 317.794,380.127 315.5,376.5 Z"/></g>
<g><path style="opacity:0.133" fill="#faf1e3" d="M 323.5,386.5 C 326.621,387.288 328.288,389.288 328.5,392.5C 326.844,390.54 325.177,388.54 323.5,386.5 Z"/></g>
<g><path style="opacity:0.09" fill="#faeeda" d="M 328.5,392.5 C 330.017,392.511 331.184,393.177 332,394.5C 334.41,397.397 336.577,400.397 338.5,403.5C 334.456,400.457 331.123,396.791 328.5,392.5 Z"/></g>
<g><path style="opacity:0.314" fill="#f9eedd" d="M 287.5,375.5 C 307.16,399.837 326.494,424.504 345.5,449.5C 346.365,450.583 347.365,450.749 348.5,450C 355.663,446.253 362.663,442.253 369.5,438C 365.23,434.239 361.563,430.072 358.5,425.5C 363.123,428.289 366.956,431.955 370,436.5C 370.667,437.5 370.667,438.5 370,439.5C 362.626,444.354 354.959,448.687 347,452.5C 346.25,451.874 345.416,451.374 344.5,451C 328.121,429.743 311.621,408.576 295,387.5C 291.887,383.886 289.387,379.886 287.5,375.5 Z"/></g>
<g><path style="opacity:0.067" fill="#faead4" d="M 338.5,403.5 C 341.661,404.812 343.661,407.145 344.5,410.5C 341.792,408.734 339.792,406.401 338.5,403.5 Z"/></g>
<g><path style="opacity:0.016" fill="#faf4eb" d="M 344.5,410.5 C 346.371,410.859 347.871,411.859 349,413.5C 352.404,417.394 355.571,421.394 358.5,425.5C 353.127,421.129 348.461,416.129 344.5,410.5 Z"/></g>
<g><path style="opacity:0.067" fill="#f8ebd7" d="M 569.5,340.5 C 569.833,340.5 570.167,340.5 570.5,340.5C 569.528,370.836 569.528,401.17 570.5,431.5C 575.074,434.276 579.407,437.276 583.5,440.5C 577.588,438.296 572.421,434.962 568,430.5C 568.253,400.51 568.753,370.51 569.5,340.5 Z"/></g>
<g><path style="opacity:0.231" fill="#fbe7cc" d="M 583.5,440.5 C 585.404,440.738 586.738,441.738 587.5,443.5C 585.596,443.262 584.262,442.262 583.5,440.5 Z"/></g>
<g><path style="opacity:0.106" fill="#fbecd5" d="M 587.5,443.5 C 590.533,445.016 593.2,447.016 595.5,449.5C 592.109,448.471 589.443,446.471 587.5,443.5 Z"/></g>
</svg>
